Genre:Comedy | Drama | Romance 
Language:English
IMDb:http://www.imdb.com/title/tt0893412/
Source:BluRay.720p.DTS.x264-CHD


Format : MPEG-4
Format profile : Base Media
Codec ID : isom
File size : 2.52 GiB
Duration : 1h 46mn
Overall bit rate : 3 385 Kbps


Video
Format profile : High@L4.1
Format settings, CABAC : Yes
Format settings, ReFrames : 3 frames
Codec ID : avc1
Codec ID/Info : Advanced Video Coding
Duration : 1h 46mn
Bit rate mode : Variable
Bit rate : 3 000 Kbps
Maximum bit rate : 14.6 Mbps
Width : 1 280 pixels
Height : 720 pixels
Display aspect ratio : 16:9
Frame rate mode : Constant
Frame rate : 23.976 fps
Color space : YUV
Chroma subsampling : 4:2:0
Bit depth : 8 bits
Scan type : Progressive
Bits/(Pixel*Frame) : 0.136
Stream size : 2.19 GiB (87%)
Writing library : x264

Audio
ID : 2
Format : AAC
Format/Info : Advanced Audio Codec
Format version : Version 4
Format profile : LC
Format settings, SBR : No
Codec ID : 40
Duration : 1h 46mn
Bit rate mode : Variable
Bit rate : 444 Kbps
Maximum bit rate : 540 Kbps
Channel(s) : 6 channels
Channel positions : Front: L C R, Side: L R, LFE
Sampling rate : 48.0 KHz
Stream size : 338 MiB (13%)


Plot:
A Latina spin on Jane Austen's "Sense and Sensibility," where two spoiled sisters who have been left penniless after their father's sudden death are forced to move in with their estranged aunt in East Los Angeles.

Screens:
 
http://www.pix2links.com/images/41072524980753468044.png 
http://www.pix2links.com/images/10648239913894440689.png 
http://www.pix2links.com/images/59652209217418889814.png 
http://www.pix2links.com/images/09592403640582564251.png 
http://www.pix2links.com/images/75456145636359586733.png

Greets:

INK,CRYS,IMAGINE,LKRG,FXG,3Li,FLAWL3SS,TA,iLLUSiON,ViSiON,DTRG SAFCuk009,LU,TheFalcon007,MYSTiC,PrisM,Noir,WBZ,LAP,Rx,Kingdom,SAFCuk009+Fabreezy,HDLiTE,TWiZTED,ExtraTorrentRG.ELEKTRI4KA,MAGNAT,CM8
And to all the other p2p grps past and present .